<mxfile host="app.diagrams.net" modified="2024-06-21T01:51:54.562Z" agent="Mozilla/5.0 (Windows NT 10.0; Win64; x64) AppleWebKit/537.36 (KHTML, like Gecko) Chrome/126.0.0.0 Safari/537.36 Edg/126.0.0.0" version="24.5.2" etag="EmfcsT_gknKaTMiu5yzz" type="github">
  <diagram name="第 1 页" id="SdLOjPW7s3I21iiqq12D">
    <mxGraphModel>
      <root>
        <mxCell id="0" />
        <mxCell id="1" parent="0" />
      </root>
    </mxGraphModel>
  </diagram>
</mxfile>
